 <svg  version="1.0" xmlns="http://www.w3.org/2000/svg"  width="300.000000pt" height="300.000000pt" viewBox="0 0 300.000000 300.000000"  preserveAspectRatio="xMidYMid meet">  <g transform="translate(0.000000,300.000000) scale(0.100000,-0.100000)" fill="#ffffff" stroke="none"> <path d="M369 2449 c50 -50 91 -95 91 -100 0 -6 -19 -18 -42 -28 l-43 -18 -6 41 -6 41 -1 -47 c-3 -68 -32 -66 -64 5 -10 20 -23 37 -29 37 -8 0 -8 -4 -2 -12 16 -22 42 -102 41 -130 0 -15 -7 -33 -14 -39 -17 -14 -19 2 -2 19 7 7 8 12 2 12 -6 0 -15 -5 -21 -11 -14 -14 -33 -3 -33 20 0 28 -39 71 -63 71 -21 -1 -20 -2 4 -15 15 -8 34 -33 43 -56 15 -36 15 -50 6 -91 -7 -26 -15 -48 -18 -48 -4 1 -20 22 -36 47 -17 26 -32 41 -34 35 -2 -7 10 -32 27 -57 24 -35 30 -53 25 -73 -10 -39 -15 -46 -25 -31 -6 10 -9 3 -9 -21 1 -19 -1 -75 -3 -125 -3 -56 2 -130 13 -198 14 -90 14 -110 3 -114 -15 -6 -79 1 -108 11 -20 8 -20 8 0 -8 11 -9 31 -26 45 -39 14 -13 32 -27 40 -31 8 -4 5 1 -8 10 -21 16 -32 42 -13 29 5 -3 12 -1 16 5 12 20 45 11 46 -12 1 -34 5 -59 14 -98 5 -19 8 -38 7 -42 -1 -5 3 -8 8 -8 6 0 10 -13 10 -29 0 -17 4 -32 9 -35 11 -7 21 -46 12 -46 -4 0 -14 11 -21 25 -7 14 -22 25 -32 25 -22 0 -75 25 -102 49 -18 15 -18 15 -6 -5 17 -27 46 -45 84 -51 30 -5 60 -22 53 -30 -2 -2 -17 1 -33 7 -16 6 -25 8 -21 3 5 -4 22 -13 40 -19 31 -11 34 -14 60 -71 21 -44 5 -56 -72 -51 -45 2 -57 0 -50 -9 10 -12 74 -11 120 1 22 6 29 3 47 -26 l21 -33 -32 -6 -32 -6 37 -2 c28 -1 40 -7 49 -23 7 -13 15 -25 19 -28 4 -3 16 -23 28 -45 11 -22 32 -53 47 -69 32 -35 28 -41 -15 -22 -22 9 -29 16 -19 18 8 3 7 4 -3 3 -9 -2 -19 2 -21 9 -7 21 -137 12 -184 -13 -58 -31 -55 -44 4 -15 65 33 124 31 207 -6 37 -17 79 -42 95 -56 15 -13 36 -31 47 -39 17 -14 15 -15 -26 -10 -51 6 -68 -4 -88 -50 -13 -29 -13 -29 20 8 32 36 34 37 85 31 40 -5 61 -14 85 -38 42 -40 77 -64 160 -109 172 -94 183 -98 361 -129 165 -29 180 -30 377 -24 113 3 221 10 240 16 19 5 77 20 129 32 l94 23 15 -23 c8 -12 23 -22 34 -22 10 0 32 -7 48 -15 17 -9 30 -12 30 -7 0 5 -19 15 -42 22 -66 21 -76 44 -25 55 17 4 40 13 51 21 20 14 58 5 88 -23 10 -9 24 -13 35 -8 14 5 10 9 -21 20 -51 18 -64 31 -38 39 11 4 23 13 26 21 7 20 28 19 73 -4 44 -22 165 -40 147 -21 -6 6 -35 13 -64 15 -56 4 -110 22 -110 36 0 5 17 12 39 15 27 4 38 11 37 23 -1 11 15 21 49 33 45 15 47 17 20 19 -25 1 -26 2 -9 7 21 7 34 17 84 65 15 15 33 27 39 27 6 0 11 6 11 14 0 18 95 106 115 106 8 0 15 4 15 8 0 5 10 14 23 21 22 11 22 11 -3 5 -14 -4 -32 -9 -39 -12 -19 -7 21 50 52 75 12 10 22 23 22 28 1 13 51 96 92 151 17 23 29 45 26 48 -3 3 1 25 10 48 8 24 17 57 20 74 3 17 25 61 48 98 23 37 39 69 36 72 -3 3 -15 -12 -26 -33 -11 -22 -27 -45 -35 -52 -19 -16 -19 -14 -5 28 9 25 9 38 -1 56 -9 17 -10 34 -3 62 5 21 6 48 2 58 -7 17 -8 18 -8 3 -1 -10 -6 -18 -12 -18 -7 0 -9 32 -6 101 2 57 1 95 -4 87 -5 -7 -9 -37 -9 -65 0 -29 -4 -53 -8 -53 -11 0 -58 97 -66 137 -8 35 -24 52 -35 37 -15 -21 -116 -47 -181 -47 l-45 1 35 -10 c33 -9 74 -7 115 7 18 5 25 -2 45 -47 12 -29 36 -81 52 -115 15 -34 28 -72 29 -85 0 -13 4 -32 8 -43 9 -23 -9 -117 -34 -168 -25 -52 -106 -121 -195 -164 -41 -20 -83 -40 -94 -46 -10 -5 -55 -20 -99 -33 -65 -19 -103 -24 -196 -24 -64 0 -132 4 -151 9 -19 6 -53 15 -76 20 -40 11 -42 13 -59 76 -9 36 -21 65 -26 65 -4 0 1 -25 12 -57 10 -31 17 -59 14 -62 -3 -2 -20 1 -38 7 -19 7 -46 12 -62 12 -45 0 -167 46 -236 90 -35 22 -76 46 -90 54 -14 8 -65 45 -113 81 -48 36 -93 65 -101 65 -29 0 -24 19 11 39 20 12 34 24 31 27 -3 3 -23 -7 -46 -21 -37 -25 -43 -26 -78 -15 -21 7 -50 21 -65 31 -14 11 -31 19 -37 19 -16 0 -14 16 10 61 11 23 16 38 10 34 -6 -3 -20 -24 -31 -46 -22 -41 -23 -42 -135 -59 -109 -16 -146 -14 -190 9 -21 12 -45 21 -52 21 -6 0 -15 5 -19 12 -5 7 0 9 14 6 42 -11 -71 89 -122 108 -28 10 -73 40 -106 70 -46 43 -63 69 -93 140 l-37 86 22 30 c17 25 19 34 9 50 -10 16 -6 26 30 68 23 27 51 55 63 63 31 20 104 44 170 57 44 9 68 20 90 43 l31 31 176 -2 c97 -2 188 -6 202 -10 14 -4 36 -23 49 -42 35 -52 93 -85 188 -109 109 -27 155 -32 446 -49 68 -4 128 -13 136 -19 8 -7 34 -15 58 -19 35 -5 52 -15 75 -42 16 -20 30 -42 30 -49 0 -11 42 -45 133 -109 l24 -16 -29 -19 c-15 -10 -23 -19 -18 -19 6 0 27 14 48 31 33 27 42 30 80 24 23 -4 51 -12 61 -17 18 -10 18 -11 -5 -24 -13 -7 -32 -13 -41 -14 -10 0 -18 -5 -18 -10 0 -6 16 -3 38 6 20 9 62 16 92 16 53 0 54 0 14 7 -23 4 -54 16 -70 26 -21 13 -49 19 -96 20 -53 1 -74 6 -105 27 -44 29 -113 98 -145 145 -16 22 -33 33 -59 37 -21 3 -39 11 -41 18 -3 8 -43 15 -119 19 -361 23 -398 27 -498 58 -113 35 -144 56 -173 117 -11 24 -21 44 -22 44 -25 1 -263 54 -272 61 -8 6 -21 5 -40 -5 -28 -14 -183 -46 -221 -46 -14 0 -23 14 -36 60 -10 33 -22 60 -27 60 -4 0 0 -28 11 -62 10 -35 17 -68 15 -74 -3 -7 -21 -18 -42 -24 -36 -12 -38 -12 -57 16 -28 40 -155 164 -169 164 -6 0 30 -41 81 -91z m285 -94 c-32 -21 -103 -44 -110 -34 -3 5 1 9 8 9 7 0 24 9 38 20 14 11 38 20 55 20 29 0 29 0 9 -15z m-347 -208 c-9 -14 -13 -34 -10 -45 3 -13 -3 -32 -16 -48 l-21 -27 0 24 c0 37 19 97 37 114 22 22 29 10 10 -18z m-59 -84 c-2 -90 0 -115 16 -150 11 -24 23 -43 28 -43 9 0 -12 52 -25 61 -8 6 -13 76 -6 84 3 2 17 -26 33 -63 15 -37 34 -81 43 -99 21 -44 91 -114 136 -137 23 -12 36 -25 33 -33 -3 -7 -1 -13 4 -13 6 0 10 4 10 9 0 12 20 8 48 -9 26 -17 30 -35 5 -26 -15 5 -15 4 1 -9 11 -8 25 -15 32 -15 6 0 14 -15 18 -32 5 -24 9 -29 15 -19 7 11 14 10 40 -8 17 -12 31 -19 31 -15 0 4 9 -1 19 -10 20 -18 78 -18 191 1 64 11 140 10 148 -2 4 -6 32 -21 62 -35 30 -13 75 -38 100 -54 25 -16 39 -22 31 -12 -8 9 -34 29 -58 43 -24 13 -43 27 -43 29 0 13 102 -51 145 -90 28 -25 55 -45 61 -46 6 0 19 -9 30 -21 10 -12 42 -32 69 -46 73 -37 167 -93 192 -116 17 -15 38 -20 102 -21 68 -1 83 -4 103 -23 29 -27 46 -30 27 -5 -13 16 -12 16 6 0 11 -9 37 -19 58 -22 22 -3 59 -11 84 -18 64 -16 271 -3 348 21 107 34 187 70 180 82 -3 4 5 5 16 2 l22 -6 -23 -17 c-12 -9 -45 -25 -72 -35 -57 -20 -59 -29 -2 -14 53 14 121 55 135 80 6 11 17 18 24 15 8 -3 37 15 64 40 28 25 51 42 51 37 0 -5 -6 -15 -12 -23 -11 -12 -10 -12 5 0 10 7 16 19 13 26 -3 7 -1 16 3 18 5 3 7 -5 6 -17 -1 -12 -3 -30 -4 -40 0 -10 -5 -15 -11 -12 -5 3 -10 0 -10 -8 0 -8 -11 -27 -24 -42 -14 -16 -22 -33 -19 -38 3 -6 1 -7 -4 -4 -6 4 -19 -6 -28 -21 l-18 -27 23 20 24 20 -22 -35 c-80 -131 -302 -354 -423 -424 -46 -27 -96 -57 -110 -67 -15 -10 -53 -27 -85 -39 -78 -27 -79 -27 -76 -13 1 7 -2 13 -8 13 -5 0 -10 -4 -10 -10 0 -5 -11 -10 -24 -10 -14 0 -28 -4 -31 -10 -3 -5 -19 -10 -35 -10 -16 0 -31 -4 -35 -10 -3 -5 -12 -7 -19 -4 -8 3 -35 -2 -60 -10 -94 -32 -383 -38 -551 -11 -55 9 -106 17 -112 17 -7 1 -13 5 -13 10 0 5 -11 6 -24 4 -33 -6 -123 23 -166 54 -19 14 -35 23 -35 20 0 -13 -164 77 -169 93 -2 10 -8 17 -13 16 -18 -3 -36 1 -30 8 11 10 -24 43 -45 43 -10 0 -18 4 -18 8 0 5 -7 17 -16 28 -8 10 -13 13 -9 7 11 -22 -5 -14 -41 19 -19 18 -34 38 -34 46 0 7 -11 24 -25 38 -13 13 -24 25 -23 27 3 4 -35 61 -70 105 -19 23 -43 57 -53 75 -46 79 -70 129 -65 135 3 3 6 1 6 -4 0 -5 9 -20 21 -34 l20 -25 -17 45 c-10 25 -24 53 -32 63 -8 9 -12 20 -9 23 3 4 0 18 -7 33 -35 69 -49 174 -51 399 -2 122 1 224 5 227 4 3 14 43 21 90 7 47 14 85 16 85 2 0 3 -48 1 -107z m2552 -366 c0 -10 5 -27 11 -38 5 -11 9 -32 7 -47 -3 -21 -6 -16 -16 26 -7 30 -18 63 -24 75 -7 12 -12 25 -13 29 0 3 -3 10 -7 14 -5 4 -8 12 -8 18 0 5 11 -5 25 -24 14 -19 25 -42 25 -53z m25 -243 c-3 -17 -14 -39 -24 -48 -18 -16 -18 -15 0 36 10 29 19 71 20 93 l2 40 4 -45 c3 -24 2 -59 -2 -76z m0 -64 c-19 -37 -143 -165 -151 -157 -3 3 24 37 61 75 37 39 73 80 81 91 22 31 27 26 9 -9z m-178 -151 c-9 -6 -17 -17 -17 -24 0 -17 -26 -20 -35 -5 -6 10 56 53 64 44 3 -3 -2 -10 -12 -15z"/> <path d="M483 1592 c-1 -31 -5 -73 -7 -92 -4 -26 -3 -30 3 -14 12 27 23 164 13 164 -4 0 -8 -26 -9 -58z"/> <path d="M1488 1273 c18 -15 20 -21 10 -32 -11 -11 -11 -13 0 -6 15 8 55 -28 44 -41 -4 -4 -2 -5 3 -2 15 8 57 -10 50 -22 -3 -6 1 -7 10 -4 10 4 24 -2 35 -13 13 -14 27 -19 44 -16 35 7 34 -13 -5 -62 l-31 -40 35 36 c19 20 36 42 39 50 4 11 9 12 32 1 l28 -12 -24 -20 c-23 -19 -22 -19 17 0 58 29 68 26 44 -15 -28 -46 -17 -45 15 2 29 42 26 54 -12 47 -15 -3 -40 1 -57 10 -16 9 -45 16 -63 16 -38 0 -159 66 -167 90 -3 9 -20 24 -37 34 -32 17 -33 17 -10 -1z"/> <path d="M1368 1203 c-19 -23 -58 -88 -58 -98 0 -10 31 32 58 78 23 40 23 47 0 20z"/> <path d="M1532 1093 c-21 -27 -51 -68 -66 -93 -48 -79 -75 -113 -106 -132 -33 -20 -40 -31 -12 -21 29 10 49 32 106 118 30 46 61 89 68 96 20 20 60 79 55 79 -3 0 -23 -21 -45 -47z"/> <path d="M775 1067 c-4 -37 -5 -70 -2 -73 7 -8 20 99 15 122 -3 11 -8 -12 -13 -49z"/> <path d="M895 1074 c-4 -22 -11 -54 -15 -71 -5 -18 -5 -33 -1 -33 9 0 34 130 27 137 -3 3 -8 -12 -11 -33z"/> <path d="M1630 1086 c0 -8 -8 -21 -17 -28 -10 -7 -25 -22 -33 -33 -8 -11 1 -6 19 10 38 34 57 65 41 65 -5 0 -10 -6 -10 -14z"/> <path d="M1879 1078 c-12 -23 -12 -23 10 -4 19 17 26 18 55 8 18 -7 46 -12 62 -11 23 1 19 3 -21 15 -70 19 -92 18 -106 -8z"/> <path d="M2045 1069 c3 -4 26 -11 51 -15 l46 -6 -33 -34 c-48 -49 -26 -42 27 9 44 42 44 44 17 40 -15 -3 -47 0 -70 5 -24 6 -41 6 -38 1z"/> <path d="M2230 1027 c-28 -23 -65 -70 -49 -61 15 8 75 74 67 74 -1 0 -10 -6 -18 -13z"/> <path d="M1885 986 c-41 -41 -48 -60 -10 -24 22 21 37 39 35 41 -3 3 -14 -5 -25 -17z"/> <path d="M1304 962 c-17 -15 -46 -45 -65 -66 -30 -34 -31 -38 -9 -25 14 8 29 21 34 29 5 8 25 30 43 49 41 41 39 49 -3 13z"/> <path d="M811 919 c1 -24 5 -55 9 -69 5 -15 6 1 3 40 -7 76 -13 93 -12 29z"/> <path d="M1913 855 c-40 -41 -69 -75 -65 -75 4 0 41 34 82 75 41 41 70 75 64 75 -5 0 -42 -34 -81 -75z"/> <path d="M1600 895 c-13 -14 -25 -32 -26 -40 -3 -23 6 -18 16 11 6 14 14 23 19 20 5 -3 12 1 15 10 10 27 1 26 -24 -1z"/> <path d="M1789 894 c-7 -8 -29 -24 -48 -34 -38 -19 -92 -70 -74 -70 6 0 16 7 24 16 7 9 33 30 58 47 54 36 76 57 63 57 -5 0 -15 -7 -23 -16z"/> <path d="M1425 778 c-33 -34 -51 -56 -39 -50 29 15 119 114 102 112 -2 -1 -30 -28 -63 -62z"/> <path d="M1537 714 c-61 -47 -60 -54 1 -13 59 40 56 38 50 44 -2 3 -26 -11 -51 -31z"/> <path d="M710 2325 c0 -21 46 -88 73 -109 48 -37 59 -32 17 7 -20 17 -46 49 -59 70 -21 34 -31 45 -31 32z"/> <path d="M1045 2310 c10 -35 49 -102 74 -124 27 -24 28 -9 1 19 -10 11 -33 45 -50 75 -17 30 -28 44 -25 30z"/> <path d="M660 2263 c0 -22 134 -132 146 -120 3 3 -5 11 -17 18 -13 7 -47 35 -76 62 -29 27 -53 45 -53 40z"/> <path d="M604 2235 c15 -32 86 -108 94 -101 2 3 -10 20 -27 38 -16 18 -42 47 -56 63 l-26 30 15 -30z"/> <path d="M445 2154 c36 -28 90 -52 130 -58 l40 -6 -45 17 c-25 9 -62 27 -82 40 -42 26 -75 31 -43 7z"/> <path d="M1095 2128 c-22 -5 -53 -7 -70 -4 -51 10 -177 -17 -209 -45 -26 -22 -27 -28 -21 -76 6 -49 4 -55 -22 -79 l-28 -26 -9 26 c-6 14 -14 26 -19 26 -5 0 -6 -8 -2 -17 4 -10 11 -32 16 -49 14 -47 17 -49 223 -155 17 -9 63 -24 101 -32 139 -32 202 -61 270 -126 56 -54 190 -131 228 -131 7 0 36 -9 64 -20 29 -11 97 -25 150 -30 54 -6 123 -15 153 -21 42 -7 73 -5 138 8 82 17 84 17 100 -3 9 -11 26 -26 37 -34 11 -8 4 3 -14 23 -19 20 -30 37 -23 37 20 0 137 57 151 74 7 9 10 16 7 16 -4 0 0 10 8 22 18 25 21 64 6 73 -5 3 -10 31 -10 61 0 103 -57 174 -139 174 -41 0 -148 31 -197 58 -11 6 -37 30 -60 54 -36 38 -84 73 -162 117 -18 10 -60 13 -146 13 -131 -1 -220 10 -306 39 -53 17 -153 40 -168 38 -4 -1 -25 -5 -47 -11z m152 -32 c8 -3 11 -1 8 4 -8 14 -4 13 46 -9 59 -26 154 -42 269 -46 127 -4 181 -10 189 -21 3 -5 31 -22 61 -38 30 -16 71 -47 91 -70 20 -22 52 -48 70 -58 96 -47 131 -58 190 -64 96 -10 133 -53 130 -155 -1 -39 4 -60 14 -69 44 -36 -94 -146 -209 -165 -17 -3 -46 -10 -64 -16 -31 -10 -59 -9 -277 16 -52 6 -257 66 -310 91 -29 14 -83 54 -121 89 -38 36 -73 65 -78 65 -5 0 -36 13 -70 29 -33 16 -90 34 -126 40 -61 10 -170 56 -170 72 0 4 -12 10 -26 13 -37 10 -104 54 -104 70 0 7 13 23 29 35 33 26 45 59 32 93 -10 27 9 72 36 83 44 18 349 27 390 11z"/> <path d="M1669 1927 c-8 -7 -33 -32 -54 -57 -38 -44 -27 -36 45 28 33 30 41 52 9 29z"/> <path d="M410 2094 c30 -7 60 -12 65 -10 15 5 -66 26 -95 25 -15 -1 -2 -7 30 -15z"/> <path d="M724 2046 c-21 -24 -46 -46 -54 -49 -11 -4 -10 -6 4 -6 19 -1 96 71 96 90 0 15 -5 11 -46 -35z"/> <path d="M420 2040 c30 -9 69 -20 85 -24 50 -11 1 14 -59 30 -73 20 -92 15 -26 -6z"/> <path d="M1868 2053 c23 -2 59 -2 80 0 20 2 1 4 -43 4 -44 0 -61 -2 -37 -4z"/> <path d="M1940 2000 c-19 -12 27 -13 85 -1 l40 9 -55 1 c-30 0 -62 -4 -70 -9z"/> <path d="M365 1980 c17 -4 44 -8 60 -8 29 0 29 0 5 8 -14 4 -41 8 -60 8 l-35 0 30 -8z"/> <path d="M550 1982 c0 -6 8 -10 18 -10 9 1 35 -2 57 -5 28 -5 35 -4 24 2 -25 16 -99 25 -99 13z"/> <path d="M95 1955 c40 -19 56 -18 49 0 -4 10 -19 15 -43 14 l-36 -1 30 -13z"/> <path d="M361 1926 c2 -2 62 -5 134 -8 79 -3 110 -2 80 3 -51 7 -222 12 -214 5z"/> <path d="M40 1879 c0 -5 11 -15 25 -21 14 -6 25 -14 25 -17 0 -3 11 -7 25 -7 32 -2 32 0 -7 23 -46 27 -68 34 -68 22z"/> <path d="M2488 1814 c-3 -3 -37 -10 -74 -15 -38 -5 -72 -13 -77 -18 -4 -4 16 -3 45 2 76 13 157 35 132 36 -11 1 -23 -2 -26 -5z"/> <path d="M651 1749 c-24 -5 -46 -11 -49 -14 -6 -5 67 3 133 15 l40 8 -40 0 c-22 0 -60 -4 -84 -9z"/> <path d="M807 1650 c-89 -20 -110 -31 -45 -23 48 6 148 32 148 39 0 6 -17 3 -103 -16z"/> <path d="M2438 1663 c18 -2 45 -2 60 0 15 2 0 4 -33 4 -33 0 -45 -2 -27 -4z"/> <path d="M2665 1604 l-50 -13 50 5 c47 6 102 24 65 23 -8 -1 -37 -7 -65 -15z"/> <path d="M2573 1548 c7 -4 46 -7 87 -7 88 1 75 7 -27 11 -40 2 -67 0 -60 -4z"/> <path d="M2896 1425 c-21 -25 -31 -42 -24 -39 18 8 72 73 66 80 -3 2 -22 -16 -42 -41z"/> <path d="M35 1430 c-3 -6 5 -10 19 -10 27 0 99 -33 129 -59 16 -14 17 -13 11 3 -4 10 -36 31 -71 47 -71 32 -79 34 -88 19z"/> <path d="M2374 1415 c16 -13 38 -26 49 -29 23 -6 21 -4 -26 28 -48 33 -62 33 -23 1z"/> <path d="M1606 1385 c10 -44 24 -78 29 -73 6 5 -18 84 -28 95 -5 4 -5 -6 -1 -22z"/> <path d="M2500 1396 c0 -9 73 -43 109 -50 44 -8 38 -2 -24 22 -27 11 -58 23 -67 27 -10 4 -18 4 -18 1z"/> <path d="M2215 1380 c8 -20 88 -80 106 -80 8 0 -2 10 -21 21 -19 12 -48 33 -63 48 -16 14 -26 19 -22 11z"/> <path d="M2133 1301 c15 -18 42 -43 60 -55 52 -35 64 -40 32 -11 -27 23 -97 82 -113 95 -3 3 6 -10 21 -29z"/> <path d="M1793 1290 c26 -63 27 -65 22 -30 -3 19 -12 42 -21 50 -13 13 -13 11 -1 -20z"/> <path d="M2054 1285 c3 -9 6 -18 6 -20 0 -1 26 -21 58 -45 47 -34 51 -36 22 -9 -19 18 -48 46 -64 61 -16 16 -26 22 -22 13z"/> <path d="M2821 1174 c-19 -8 -32 -17 -29 -19 3 -3 22 2 43 11 23 9 53 14 72 11 20 -4 31 -2 28 4 -9 14 -75 10 -114 -7z"/> <path d="M2773 1112 c-28 -20 -50 -39 -48 -41 6 -5 80 46 96 65 16 20 10 17 -48 -24z"/> <path d="M2736 1035 c-52 -29 -57 -33 -37 -40 12 -4 25 -4 28 -1 4 3 0 6 -8 6 -8 0 4 11 26 25 22 13 52 25 68 25 32 0 37 15 5 16 -13 1 -50 -13 -82 -31z"/> <path d="M169 1029 c25 -5 63 -17 85 -28 23 -10 55 -21 71 -23 17 -3 24 -3 18 -1 -7 3 -13 9 -13 14 0 5 -9 9 -19 9 -10 0 -38 9 -62 20 -24 11 -62 19 -84 19 l-40 -1 44 -9z"/> <path d="M2690 960 c0 -5 18 -9 40 -8 47 2 45 9 -5 15 -19 2 -35 -1 -35 -7z"/> <path d="M2612 873 c-24 -8 -42 -16 -40 -18 4 -4 109 23 116 30 10 10 -34 3 -76 -12z"/> <path d="M2507 766 c-31 -7 -62 -17 -68 -23 -6 -6 15 -5 53 4 34 8 82 13 105 11 23 -2 39 0 35 4 -15 15 -68 17 -125 4z"/> <path d="M2119 514 c25 -7 47 -12 49 -9 9 8 -1 12 -48 18 l-45 6 44 -15z"/> </g> </svg> 